<svg width="36" height="36" viewBox="0 0 36 36" fill="none" xmlns="http://www.w3.org/2000/svg">
<path d="M7.39342 28.6064C10.0671 31.2776 13.6543 32.8353 17.4314 32.9654C16.7369 28.8059 17.9789 24.3839 21.1814 21.1814C24.3854 17.9789 28.8059 16.7369 32.9654 17.4314C32.8274 13.7819 31.3859 10.1729 28.6064 7.39342C25.8269 4.61392 22.2164 3.17242 18.5684 3.03442C19.2629 7.19392 18.0209 11.6159 14.8184 14.8184C11.6144 18.0209 7.19392 19.2629 3.03442 18.5684C3.16316 22.3458 4.72112 25.9335 7.39342 28.6064Z" fill="#525252"/>
<path d="M23.3025 23.3025C22.0817 24.5242 21.1814 26.0285 20.6813 27.6816C20.1813 29.3348 20.097 31.0859 20.436 32.7795C23.5306 32.2825 26.3895 30.8219 28.6057 28.6057C30.8219 26.3894 32.2825 23.5305 32.7795 20.436C31.0859 20.0974 29.335 20.1818 27.6819 20.6819C26.0287 21.1819 24.5245 22.082 23.3025 23.3025ZM12.6975 12.6975C13.9183 11.4757 14.8186 9.97146 15.3187 8.31827C15.8187 6.66508 15.903 4.91403 15.564 3.22046C12.4692 3.71715 9.6099 5.17759 7.39338 7.39385C5.17685 9.6101 3.71606 12.4692 3.21899 15.564C4.9128 15.9027 6.664 15.8183 8.31738 15.3183C9.97077 14.8182 11.4753 13.918 12.6975 12.6975Z" fill="#525252"/>
</svg>
