<svg width="36" height="36" viewBox="0 0 36 36" fill="none" xmlns="http://www.w3.org/2000/svg">
<path d="M26.589 19.53L21 24H13.5V22.5H19.5975C19.7332 22.4999 19.8663 22.4631 19.9826 22.3933C20.099 22.3236 20.1943 22.2236 20.2583 22.104C20.3223 21.9844 20.3527 21.8497 20.3463 21.7142C20.3398 21.5787 20.2967 21.4474 20.2215 21.3345L18.8895 19.3365C18.6162 18.9252 18.2455 18.5879 17.8102 18.3547C17.375 18.1215 16.8888 17.9997 16.395 18H4.5C4.10218 18 3.72064 18.158 3.43934 18.4393C3.15804 18.7206 3 19.1022 3 19.5V28.5C3 29.2956 3.31607 30.0587 3.87868 30.6213C4.44129 31.1839 5.20435 31.5 6 31.5H20.4585C21.0999 31.5001 21.7339 31.3632 22.3181 31.0983C22.9023 30.8334 23.423 30.4466 23.8455 29.964L33 19.5L30.822 18.774C30.1094 18.5365 29.3487 18.4812 28.6093 18.6133C27.8699 18.7453 27.1753 19.0605 26.589 19.53ZM28.887 11.085C29.5635 10.3875 29.982 9.423 29.982 8.358C29.982 7.293 29.5635 6.3285 28.887 5.631C28.5449 5.27397 28.1341 4.98974 27.6795 4.79539C27.2248 4.60104 26.7355 4.50056 26.241 4.5C26.241 4.5 24.375 4.4955 22.5 6.429C20.625 4.4955 18.759 4.5 18.759 4.5C18.2647 4.50063 17.7755 4.60098 17.3209 4.79506C16.8662 4.98914 16.4554 5.27295 16.113 5.6295C15.4365 6.3285 15.018 7.2915 15.018 8.3565C15.018 9.4215 15.4365 10.3875 16.113 11.0835L22.5 18L28.887 11.085Z" fill="#525252"/>
</svg>
